<svg width="48" height="34" viewBox="0 0 48 34" fill="none" xmlns="http://www.w3.org/2000/svg">
<rect y="0.800049" width="34.2309" height="30.8" rx="7.04" fill="#F0BA27"/>
<rect x="24.0706" y="8.38257" width="3.03326" height="15.7568" rx="1.51663" transform="rotate(-0.316151 24.0706 8.38257)" fill="white"/>
<ellipse cx="15.8496" cy="20.1161" rx="1.47927" ry="1.41763" fill="white"/>
<rect x="13.9397" y="9.26636" width="3.03326" height="17.2584" rx="1.51663" transform="rotate(-27.6079 13.9397 9.26636)" fill="white"/>
<rect x="15.2197" y="7.84009" width="3.03326" height="17.3397" rx="1.51663" transform="rotate(28.147 15.2197 7.84009)" fill="#F9F9F9"/>
<rect x="28" y="24.2" width="20" height="9" rx="1" fill="#E91D35"/>
<path d="M30.1736 31.2V26.7393H31.8812C32.2035 26.7393 32.4714 26.7902 32.6849 26.8918C32.8998 26.992 33.0602 27.1292 33.1662 27.3035C33.2737 27.4777 33.3274 27.6752 33.3274 27.8959C33.3274 28.0774 33.2926 28.2327 33.2229 28.362C33.1532 28.4898 33.0595 28.5936 32.9419 28.6734C32.8243 28.7533 32.6929 28.8107 32.5477 28.8455V28.8891C32.7059 28.8978 32.8577 28.9464 33.0029 29.035C33.1495 29.1221 33.2693 29.2455 33.3623 29.4053C33.4552 29.565 33.5016 29.7581 33.5016 29.9846C33.5016 30.2155 33.4457 30.4231 33.3339 30.6075C33.2221 30.7905 33.0537 30.935 32.8286 31.041C32.6036 31.147 32.3204 31.2 31.9792 31.2H30.1736ZM30.9817 30.5248H31.8507C32.144 30.5248 32.3553 30.4689 32.4845 30.3571C32.6152 30.2438 32.6805 30.0986 32.6805 29.9214C32.6805 29.7893 32.6479 29.6702 32.5825 29.5643C32.5172 29.4568 32.4242 29.3726 32.3037 29.3116C32.1832 29.2492 32.0395 29.2179 31.8725 29.2179H30.9817V30.5248ZM30.9817 28.6364H31.781C31.9204 28.6364 32.046 28.611 32.1578 28.5602C32.2696 28.5079 32.3575 28.4346 32.4213 28.3402C32.4867 28.2444 32.5194 28.1311 32.5194 28.0004C32.5194 27.8276 32.4584 27.6853 32.3364 27.5735C32.2159 27.4617 32.0366 27.4058 31.7984 27.4058H30.9817V28.6364ZM34.4806 31.2V26.7393H37.3817V27.4167H35.2887V28.6277H37.2315V29.3051H35.2887V30.5226H37.3992V31.2H34.4806ZM38.2861 27.4167V26.7393H41.845V27.4167H40.4663V31.2H39.6648V27.4167H38.2861ZM42.8408 31.2H41.9783L43.5487 26.7393H44.5462L46.1188 31.2H45.2563L44.0649 27.6541H44.0301L42.8408 31.2ZM42.8692 29.451H45.2214V30.1H42.8692V29.451Z" fill="white"/>
</svg>
