<svg width="48" height="48" viewBox="0 0 48 48" fill="none" xmlns="http://www.w3.org/2000/svg">
<path fill-rule="evenodd" clip-rule="evenodd" d="M32.6365 22.2727C35.2884 22.2727 37.7107 23.2738 39.5455 24.9179V23.8353C39.5455 15.3595 32.5717 8.46269 24.0001 8.46269C15.4285 8.46269 8.45463 15.3595 8.45463 23.8353V24.9179C10.2895 23.2738 12.7118 22.2727 15.3636 22.2727C16.3171 22.2727 17.0909 23.0448 17.0909 24L17.0909 41.2727C17.0909 42.227 16.3171 43 15.3636 43C9.64895 43 5 38.351 5 32.6364L5.00009 32.5931V23.8353C5.00009 13.449 13.5233 5 24.0001 5C34.4769 5 43.0001 13.449 43.0001 23.8353V32.5924L43.0002 32.6363C43.0002 38.351 38.3512 43 32.6365 43C31.6831 43 30.9093 42.2279 30.9093 41.2727V24C30.9093 23.0457 31.6831 22.2727 32.6365 22.2727ZM8.45463 32.6323L8.45456 32.649C8.46035 35.8571 10.6642 38.5593 13.6364 39.3261L13.6364 25.9466C10.6713 26.7107 8.47088 29.4027 8.45463 32.6007V32.6323ZM39.5455 32.6005C39.5292 29.4026 37.3288 26.7115 34.3638 25.9466V39.3261C37.3355 38.5603 39.5392 35.8579 39.5456 32.6505L39.5455 32.6323V32.6005Z" fill="#000000"/>
</svg>
