<svg width="48" height="48" viewBox="0 0 48 48" fill="none" xmlns="http://www.w3.org/2000/svg">
<path d="M5 12C5 8.13401 8.13401 5 12 5H36C39.866 5 43 8.13401 43 12V36C43 39.866 39.866 43 36 43H12C8.13401 43 5 39.866 5 36V12Z" fill="#212121"/>
<rect width="48" height="48" fill="white" fill-opacity="0.01"/>
<path d="M33.7032 14.8237C31.9186 13.9796 30.0048 13.3577 28.0039 13.0015C27.9674 12.9946 27.931 13.0118 27.9123 13.0462C27.6661 13.4974 27.3935 14.0861 27.2026 14.5488C25.0505 14.2167 22.9094 14.2167 20.8014 14.5488C20.6104 14.0758 20.3279 13.4974 20.0807 13.0462C20.0619 13.0129 20.0255 12.9958 19.9891 13.0015C17.9892 13.3565 16.0755 13.9784 14.2898 14.8237C14.2743 14.8306 14.261 14.842 14.2523 14.8569C10.6223 20.4471 9.62789 25.9 10.1157 31.2852C10.1179 31.3116 10.1323 31.3368 10.1521 31.3528C12.5471 33.1658 14.867 34.2664 17.1438 34.996C17.1803 35.0075 17.2189 34.9937 17.2421 34.9628C17.7806 34.2046 18.2607 33.4052 18.6724 32.5645C18.6967 32.5153 18.6735 32.4569 18.6238 32.4374C17.8623 32.1396 17.1372 31.7765 16.4397 31.3642C16.3845 31.331 16.3801 31.2497 16.4309 31.2107C16.5776 31.0974 16.7245 30.9794 16.8646 30.8603C16.89 30.8385 16.9253 30.8339 16.9551 30.8477C21.5375 33.0043 26.4985 33.0043 31.0268 30.8477C31.0566 30.8328 31.0919 30.8374 31.1184 30.8591C31.2586 30.9783 31.4054 31.0974 31.5533 31.2107C31.604 31.2497 31.6007 31.331 31.5455 31.3642C30.848 31.7845 30.1229 32.1396 29.3603 32.4362C29.3106 32.4557 29.2885 32.5153 29.3128 32.5645C29.7333 33.404 30.2134 34.2034 30.742 34.9616C30.7641 34.9937 30.8038 35.0075 30.8403 34.996C33.1282 34.2664 35.4481 33.1658 37.843 31.3528C37.864 31.3368 37.8772 31.3127 37.8794 31.2864C38.4633 25.0604 36.9016 19.6523 33.7396 14.858C33.7319 14.842 33.7186 14.8306 33.7032 14.8237ZM19.3567 28.0062C17.9771 28.0062 16.8403 26.7005 16.8403 25.0971C16.8403 23.4937 17.955 22.188 19.3567 22.188C20.7694 22.188 21.8951 23.5051 21.873 25.0971C21.873 26.7005 20.7583 28.0062 19.3567 28.0062ZM28.6605 28.0062C27.281 28.0062 26.1442 26.7005 26.1442 25.0971C26.1442 23.4937 27.2589 22.188 28.6605 22.188C30.0732 22.188 31.199 23.5051 31.1769 25.0971C31.1769 26.7005 30.0732 28.0062 28.6605 28.0062Z" fill="white"/>
</svg>
