<svg width="48" height="48" viewBox="0 0 48 48" fill="none" xmlns="http://www.w3.org/2000/svg">
<path d="M5 12C5 8.13401 8.13401 5 12 5H36C39.866 5 43 8.13401 43 12V36C43 39.866 39.866 43 36 43H12C8.13401 43 5 39.866 5 36V12Z" fill="#212121"/>
<path fill-rule="evenodd" clip-rule="evenodd" d="M29.5923 24.0623H26.2624V36.2609H21.2176V24.0623H18.8183V19.7739H21.2176V16.9999C21.2176 15.0164 22.1594 11.909 26.3081 11.909L30.0439 11.9256V16.0868H27.3327C26.8878 16.0868 26.2624 16.3092 26.2624 17.2548V19.7789H30.0339L29.5923 24.0623Z" fill="white"/>
</svg>
