<svg width="30" height="30" viewBox="0 0 30 30" fill="none" xmlns="http://www.w3.org/2000/svg">
<path d="M15.2001 24C16.0008 24 16.4159 23.647 16.6977 22.7417L17.8838 19.2276H24.3632L25.5494 22.7417C25.8459 23.647 26.2611 24 27.0617 24C27.9365 24 28.4999 23.4629 28.4999 22.6343C28.4999 22.3273 28.4406 22.0665 28.3368 21.7289L23.3105 7.59588C22.925 6.52174 22.243 5.99998 21.1309 5.99998C20.0782 5.99998 19.3813 6.52174 19.0106 7.58055L13.9695 21.7749C13.836 22.1125 13.8064 22.3734 13.8064 22.6496C13.8064 23.4782 14.3401 24 15.2001 24ZM18.5955 16.8184L21.0864 9.29923H21.1606L23.6515 16.8184H18.5955ZM2.83439 24C3.47194 24 3.90192 23.647 4.16881 22.7877L4.85085 20.624H8.95794L9.6548 22.7877C9.92169 23.6624 10.3368 24 11.0041 24C11.7899 24 12.3385 23.4782 12.3385 22.711C12.3385 22.4194 12.2792 22.1432 12.1457 21.7596L8.91345 12.7366C8.5576 11.7238 7.92004 11.156 6.88214 11.156C5.90357 11.156 5.26601 11.7391 4.92498 12.7366L1.69269 21.7596C1.54442 22.1279 1.49994 22.4501 1.49994 22.711C1.49994 23.4936 2.01888 24 2.83439 24ZM5.47359 18.5064L6.80802 14.0256H6.97111L8.3352 18.5064H5.47359Z" fill="#000000"/>
</svg>
