<svg width="20" height="20" viewBox="0 0 20 20" fill="none" xmlns="http://www.w3.org/2000/svg">
<path d="M0 5C0 4.44772 0.447715 4 1 4H19C19.5523 4 20 4.44772 20 5V15C20 15.5523 19.5523 16 19 16H1C0.447715 16 0 15.5523 0 15V5Z" fill="#000000"/>
<path d="M3.07688 12V7.63636H5.87234V8.29901H3.86737V9.48366H5.68058V10.1463H3.86737V12H3.07688ZM6.59251 12V7.63636H8.22887C8.5641 7.63636 8.84535 7.6946 9.07262 7.81108C9.30131 7.92756 9.4739 8.09091 9.59038 8.30114C9.70827 8.50994 9.76722 8.75355 9.76722 9.03196C9.76722 9.31179 9.70756 9.55469 9.58825 9.76065C9.47035 9.9652 9.29634 10.1236 9.06623 10.2358C8.83612 10.3466 8.55344 10.402 8.21822 10.402H7.05273V9.74574H8.11168C8.30771 9.74574 8.46822 9.71875 8.59322 9.66477C8.71822 9.60937 8.81055 9.52912 8.87021 9.42401C8.93129 9.31747 8.96183 9.18679 8.96183 9.03196C8.96183 8.87713 8.93129 8.74503 8.87021 8.63565C8.80913 8.52486 8.71609 8.44105 8.59109 8.38423C8.46609 8.32599 8.30487 8.29688 8.10742 8.29688H7.38299V12H6.59251ZM8.84677 10.0227L9.92702 12H9.04492L7.98384 10.0227H8.84677ZM10.4949 12V7.63636H13.3329V8.29901H11.2853V9.48366H13.1859V10.1463H11.2853V11.3374H13.35V12H10.4949ZM14.1394 12V7.63636H16.9775V8.29901H14.9299V9.48366H16.8304V10.1463H14.9299V11.3374H16.9945V12H14.1394Z" fill="white"/>
</svg>
