<svg width="48" height="48" viewBox="0 0 16 17" fill="none" xmlns="http://www.w3.org/2000/svg">
<path fill-rule="evenodd" clip-rule="evenodd" d="M3.57172 2.98676C3.00596 2.98676 2.54536 3.44737 2.54536 4.01313V12.8695C2.54536 13.4352 3.00596 13.8959 3.57172 13.8959H12.4284C12.9941 13.8959 13.4544 13.4352 13.4544 12.8695V4.01313C13.4544 3.44737 12.9941 2.98676 12.4284 2.98676H3.57172ZM12.4285 15.1081H3.57182C2.33758 15.1081 1.33333 14.1038 1.33333 12.8696V4.01322C1.33333 2.77898 2.33758 1.77474 3.57182 1.77474H12.4285C13.6627 1.77474 14.6667 2.77898 14.6667 4.01322V12.8696C14.6667 14.1038 13.6627 15.1081 12.4285 15.1081Z" fill="#000000"/>
<path d="M5.18003 11.4414C4.83779 11.4414 4.66667 11.2583 4.66667 10.8922V5.99064C4.66667 5.62449 4.83779 5.44141 5.18003 5.44141C5.52228 5.44141 5.6934 5.62449 5.6934 5.99064V10.8922C5.6934 11.2583 5.52228 11.4414 5.18003 11.4414ZM7.47596 11.3748C7.11232 11.3748 6.9305 11.1862 6.9305 10.809V6.07386C6.9305 5.6966 7.11232 5.50798 7.47596 5.50798H9.0321C9.97862 5.50798 10.7086 5.76041 11.2219 6.26526C11.7406 6.77011 12 7.49411 12 8.43725C12 9.37483 11.7406 10.0988 11.2219 10.6092C10.7086 11.1196 9.97862 11.3748 9.0321 11.3748H7.47596ZM7.95724 10.4927H8.96793C10.2727 10.4927 10.9251 9.80756 10.9251 8.43725C10.9251 7.07247 10.2727 6.39009 8.96793 6.39009H7.95724V10.4927Z" fill="#000000"/>
</svg>
