<svg width="49" height="48" viewBox="0 0 49 48" fill="none" xmlns="http://www.w3.org/2000/svg">
<path d="M5.5 12C5.5 8.13401 8.63401 5 12.5 5H36.5C40.366 5 43.5 8.13401 43.5 12V36C43.5 39.866 40.366 43 36.5 43H12.5C8.63401 43 5.5 39.866 5.5 36V12Z" fill="#212121"/>
<path fill-rule="evenodd" clip-rule="evenodd" d="M37.4124 30.0633C37.4124 33.6034 34.5347 36.4799 30.9969 36.4799H18.3945C14.8567 36.4799 11.9773 33.6034 11.9773 30.0633V17.4626C11.9773 13.9254 14.8567 11.0454 18.3945 11.0454H30.9969C34.5347 11.0454 37.4124 13.9254 37.4124 17.4626V30.0633Z" fill="white"/>
<path fill-rule="evenodd" clip-rule="evenodd" d="M31.4571 18.5667C30.6015 18.5667 29.9067 17.8724 29.9067 17.0168C29.9067 16.163 30.6015 15.4664 31.4571 15.4664C32.3103 15.4664 33.0075 16.163 33.0075 17.0168C33.0075 17.8724 32.3103 18.5667 31.4571 18.5667ZM24.6943 30.3141C21.0835 30.3141 18.1434 27.374 18.1434 23.7632C18.1434 20.1518 21.0835 17.2123 24.6943 17.2123C28.308 17.2123 31.2457 20.1518 31.2457 23.7632C31.2457 27.374 28.3056 30.3141 24.6943 30.3141ZM30.9972 13.8147H18.3942C16.3816 13.8147 14.7463 15.4499 14.7463 17.4626V30.0632C14.7463 32.0759 16.3816 33.7141 18.3942 33.7141H30.9972C33.0075 33.7141 34.6451 32.0759 34.6451 30.0632V17.4626C34.6451 15.4499 33.0075 13.8147 30.9972 13.8147Z" fill="#212121"/>
<path fill-rule="evenodd" clip-rule="evenodd" d="M24.6944 19.9817C22.6105 19.9817 20.9128 21.677 20.9128 23.7632C20.9128 25.8495 22.6105 27.5466 24.6944 27.5466C26.7807 27.5466 28.4783 25.8495 28.4783 23.7632C28.4783 21.6793 26.7807 19.9817 24.6944 19.9817Z" fill="#212121"/>
<rect x="0.5" width="48" height="48" fill="white" fill-opacity="0.01"/>
</svg>
