<svg width="48" height="48" viewBox="0 0 48 48" fill="none" xmlns="http://www.w3.org/2000/svg">
<path fill-rule="evenodd" clip-rule="evenodd" d="M39.6174 38.4231C40.7208 38.4231 41.6154 37.5268 41.6154 36.4275V36.3802C41.6154 35.2781 40.7249 34.3846 39.6174 34.3846H8.99803C7.89455 34.3846 7 35.2809 7 36.3802V36.4275C7 37.5296 7.89045 38.4231 8.99803 38.4231H39.6174Z" fill="#000000"/>
<path fill-rule="evenodd" clip-rule="evenodd" d="M39.6174 25.7308C40.7208 25.7308 41.6154 24.8345 41.6154 23.7352V23.6879C41.6154 22.5858 40.7249 21.6923 39.6174 21.6923H8.99803C7.89455 21.6923 7 22.5886 7 23.6879V23.7352C7 24.8373 7.89045 25.7308 8.99803 25.7308H39.6174Z" fill="#000000"/>
<path fill-rule="evenodd" clip-rule="evenodd" d="M7 11.0429C7 12.145 7.89045 13.0385 8.99803 13.0385H39.6174C40.7208 13.0385 41.6154 12.1422 41.6154 11.0429V10.9956C41.6154 9.89345 40.7249 9 39.6174 9H8.99803C7.89455 9 7 9.89627 7 10.9956V11.0429Z" fill="#000000"/>
</svg>
