<svg width="48" height="48" viewBox="0 0 48 48" fill="none" xmlns="http://www.w3.org/2000/svg">
<path d="M22.3636 17.4546C22.3636 15.6472 20.8982 14.1818 19.0908 14.1818C17.2835 14.1818 15.8181 15.6472 15.8181 17.4546C15.8181 19.2619 17.2835 20.7273 19.0908 20.7273C20.8982 20.7273 22.3636 19.2619 22.3636 17.4546Z" fill="#000000"/>
<path fill-rule="evenodd" clip-rule="evenodd" d="M42 34.6781C42 38.7158 38.7158 42 34.6789 42H13.3211C9.28336 42 6 38.7158 6 34.6781V13.3219C6 9.28418 9.28336 6 13.3211 6H34.6789C38.7158 6 42 9.28418 42 13.3219V34.6781ZM13.3211 9.27273C11.0883 9.27273 9.27273 11.0899 9.27273 13.3219V31.0826L12.8498 26.292C13.1325 25.9132 13.5634 25.6752 14.0342 25.6416C14.4985 25.6032 14.9644 25.7774 15.2992 26.1096L19.7455 30.5314L27.6667 21.2726C28.2885 20.5455 29.5297 20.5455 30.1515 21.2726L38.7273 31.2965V13.3219C38.7273 11.0899 36.9109 9.27273 34.6789 9.27273H13.3211Z" fill="#000000"/>
</svg>
