<svg width="48" height="48" viewBox="0 0 48 48" fill="none" xmlns="http://www.w3.org/2000/svg">
<path d="M5 12C5 8.13401 8.13401 5 12 5H36C39.866 5 43 8.13401 43 12V36C43 39.866 39.866 43 36 43H12C8.13401 43 5 39.866 5 36V12Z" fill="#212121"/>
<path fill-rule="evenodd" clip-rule="evenodd" d="M25.1185 29.2222C23.8111 29.1197 23.2617 28.4727 22.2358 27.8485C21.6713 30.8065 20.9827 33.6426 18.9408 35.1246C18.3112 30.653 19.8654 27.2945 20.5883 23.7316C19.358 21.6573 20.736 17.4853 23.3338 18.5143C26.5296 19.7777 20.5655 26.2211 24.5703 27.0254C28.7497 27.8651 30.4561 19.7731 27.864 17.141C24.1184 13.341 16.9618 17.0546 17.8428 22.4947C18.0568 23.8245 19.4316 24.2282 18.391 26.0642C15.9948 25.5329 15.2792 23.6421 15.3714 21.1226C15.5202 16.9975 19.0777 14.109 22.6471 13.7084C27.1623 13.2037 31.3988 15.3663 31.9833 19.612C32.6414 24.4044 29.9456 29.5943 25.1185 29.2222Z" fill="white"/>
</svg>
