<svg width="48" height="48" viewBox="0 0 48 48" fill="none" xmlns="http://www.w3.org/2000/svg">
<path d="M5 12C5 8.13401 8.13401 5 12 5H36C39.866 5 43 8.13401 43 12V36C43 39.866 39.866 43 36 43H12C8.13401 43 5 39.866 5 36V12Z" fill="#212121"/>
<path fill-rule="evenodd" clip-rule="evenodd" d="M35.8755 16.7495C35.0262 17.1305 34.1116 17.3889 33.1536 17.5043C34.1323 16.9101 34.8831 15.9706 35.2388 14.851C34.3219 15.3996 33.3074 15.7994 32.2284 16.0144C31.3637 15.0817 30.1313 14.5 28.7677 14.5C26.1493 14.5 24.0283 16.6485 24.0283 19.296C24.0283 19.6716 24.0694 20.0387 24.1507 20.3897C20.212 20.189 16.7186 18.2797 14.3816 15.3768C13.9725 16.086 13.7396 16.9101 13.7396 17.7887C13.7396 19.4534 14.5765 20.9223 15.8468 21.7817C15.07 21.7571 14.3401 21.5407 13.6998 21.1807V21.242C13.6998 23.5649 15.3343 25.5037 17.502 25.9441C17.1053 26.0546 16.6859 26.1136 16.2542 26.1136C15.9489 26.1136 15.652 26.0836 15.3617 26.0278C15.9661 27.9335 17.7164 29.3201 19.7909 29.3585C18.1684 30.6458 16.1248 31.4109 13.9035 31.4109C13.52 31.4109 13.1422 31.3899 12.7728 31.3447C14.8699 32.7058 17.3607 33.5 20.0374 33.5C28.7558 33.5 33.5248 26.1901 33.5248 19.8518C33.5248 19.6439 33.5195 19.4378 33.5107 19.2316C34.4377 18.5555 35.2405 17.7104 35.8755 16.7495Z" fill="white"/>
</svg>
