<svg width="48" height="48" viewBox="0 0 48 48" fill="none" xmlns="http://www.w3.org/2000/svg">
<path d="M24 6.11111C23.552 6.11111 23.1049 6.2849 22.7627 6.63337L15.7625 13.7631C15.0792 14.4592 15.0792 15.5875 15.7625 16.2835C16.4459 16.9796 17.5537 16.9796 18.2371 16.2835L22.0557 12.3943V29.0694C22.0557 30.0286 22.9268 30.8056 24.0001 30.8056C25.0734 30.8056 25.9446 30.0286 25.9446 29.0694V12.3945L29.7629 16.2835C30.4463 16.9796 31.5541 16.9796 32.2375 16.2835C32.9208 15.5875 32.9208 14.4592 32.2375 13.7631L25.2373 6.63337C24.8951 6.2849 24.448 6.11111 24 6.11111Z" fill="#000000"/>
<path d="M6.5 35.1806C6.5 38.6644 9.24837 41.5 12.625 41.5H35.375C38.7516 41.5 41.5 38.6644 41.5 35.1806V30.6667C41.5 29.6691 40.716 28.8611 39.75 28.8611C38.784 28.8611 38 29.6691 38 30.6667V35.1806C38 36.6738 36.8223 37.8889 35.375 37.8889H12.625C11.1777 37.8889 10 36.6738 10 35.1806V30.6667C10 29.6691 9.216 28.8611 8.25 28.8611C7.284 28.8611 6.5 29.6691 6.5 30.6667V35.1806Z" fill="#000000"/>
</svg>
