<svg width="48" height="48" viewBox="0 0 48 48" fill="none" xmlns="http://www.w3.org/2000/svg">
<path fill-rule="evenodd" clip-rule="evenodd" d="M30.9092 37.8182L34.3637 32.6364L24.0001 15.3636L13.6365 32.6364L17.091 37.8182H30.9092ZM26.591 30.0455C26.591 31.4765 25.4311 32.6364 24.0001 32.6364C22.569 32.6364 21.4092 31.4765 21.4092 30.0455C21.4092 28.6144 22.569 27.4546 24.0001 27.4546C25.4311 27.4546 26.591 28.6144 26.591 30.0455Z" fill="#000000"/>
<path fill-rule="evenodd" clip-rule="evenodd" d="M17.0909 43H30.9091V39.5455H17.0909V43Z" fill="#000000"/>
<path d="M27.0749 6.87874C32.2912 7.40155 35.9989 9.16857 38.12 10.4887C38.5545 10.2916 39.0371 10.1818 39.5454 10.1818C41.4531 10.1818 42.9999 11.7286 42.9999 13.6364C42.9999 15.5441 41.4531 17.0909 39.5454 17.0909C37.6376 17.0909 36.0908 15.5441 36.0908 13.6364C36.0908 13.5282 36.0958 13.4213 36.1055 13.3157C34.3303 12.2487 31.2285 10.8057 26.8975 10.3361C26.2814 11.283 25.2137 11.9091 24 11.9091C22.7851 11.9091 21.7166 11.2818 21.1007 10.3335C16.7445 10.7983 13.6579 12.2343 11.8931 13.3019C11.9037 13.4119 11.9091 13.5235 11.9091 13.6364C11.9091 15.5441 10.3623 17.0909 8.45455 17.0909C6.54677 17.0909 5 15.5441 5 13.6364C5 11.7286 6.54677 10.1818 8.45455 10.1818C8.96276 10.1818 9.44536 10.2916 9.87992 10.4887C12.0009 9.16854 15.7084 7.40153 20.925 6.87873C21.4978 5.76325 22.6598 5 24 5C25.3401 5 26.5021 5.76325 27.0749 6.87874Z" fill="#000000"/>
</svg>
