<svg width="48" height="48" viewBox="0 0 48 48" fill="none" xmlns="http://www.w3.org/2000/svg">
<path d="M5 12C5 8.13401 8.13401 5 12 5H36C39.866 5 43 8.13401 43 12V36C43 39.866 39.866 43 36 43H12C8.13401 43 5 39.866 5 36V12Z" fill="#212121"/>
<rect width="48" height="48" fill="white" fill-opacity="0.01"/>
<path d="M16.5718 32.4145L16.6166 32.1433L16.4117 31.9602C14.0103 29.8133 12.5 26.6933 12.5 23.22C12.5 16.7472 17.7472 11.5 24.22 11.5C30.6927 11.5 35.9399 16.7472 35.9399 23.22C35.9399 29.6927 30.6927 34.9399 24.22 34.9399C22.6105 34.9399 21.078 34.6158 19.6832 34.0297L19.471 33.9405L19.2652 34.0438L16.3282 35.5182C16.2059 35.5796 16.0657 35.4764 16.088 35.3414L16.5718 32.4145Z" fill="#00B934" stroke="white"/>
<path d="M23.3386 24.4353C21.8149 23.2375 20.3275 21.817 20.877 21.119C21.6652 20.1209 22.3753 19.4789 20.5617 17.6984C18.748 15.9178 17.8728 17.5545 17.1111 18.521C16.2321 19.6363 17.6175 23.241 21.7268 26.4811C25.8361 29.7212 29.6652 30.2239 30.5453 29.1085C31.305 28.1399 32.6898 26.9095 30.5381 25.5618C28.3865 24.2142 27.9272 25.056 27.1412 26.0533C26.5882 26.7511 24.8599 25.6368 23.3386 24.4353Z" fill="white"/>
</svg>
